<svg xmlns="http://www.w3.org/2000/svg" width="1024" height="1024" fill="none"><path fill="#654FF0" d="M629.129 0v5.519a117.413 117.413 0 0 1-117.414 117.414A117.413 117.413 0 0 1 394.3 5.519V0H0v1024h1024V0H629.129Z"/><path fill="#fff" d="M109.393 644V386h96.6v32.1h-61.8v193.8h61.8V644h-96.6ZM302.476 455.9c0-17 4.4-29.9 13.2-38.7 8.8-8.8 22.3-13.2 40.5-13.2h36.9v30.9h-39c-5.2 0-9.3 1.7-12.3 5.1-3 3.4-4.5 8.1-4.5 14.1V617h-34.8V455.9Zm-37.5 14.4h126v30.9h-126v-30.9ZM462.559 458l.9 21.9c3.2-8.4 7.5-14.7 12.9-18.9 5.4-4.4 11.8-6.6 19.2-6.6 7 0 12.8 2.3 17.4 6.9 4.8 4.4 8.6 11.4 11.4 21 2.8-8.8 6.9-15.6 12.3-20.4 5.6-5 12.3-7.5 20.1-7.5 12.2 0 21.2 5.2 27 15.6 6 10.4 9 26.2 9 47.4V617h-34.2v-99.6c0-12.8-.9-21.8-2.7-27-1.8-5.4-5.1-8.1-9.9-8.1-3.6 0-6.6 1.3-9 3.9-2.4 2.6-4.2 6.5-5.4 11.7-1.2 5.2-1.8 11.7-1.8 19.5V617h-34.2v-99.6c0-12.8-1.1-21.8-3.3-27-2-5.4-5.6-8.1-10.8-8.1-3.2 0-5.9 1.3-8.1 3.9-2.2 2.6-3.9 6.6-5.1 12-1.2 5.2-1.8 11.6-1.8 19.2V617h-33.9V458h30ZM698.242 416v148.8c0 6.6 1.699 11.8 5.099 15.6 3.6 3.8 8.701 5.7 15.301 5.7h37.199V617h-41.7c-17 0-29.699-4.1-38.099-12.3-8.4-8.4-12.6-20.5-12.6-36.3V416h34.8Zm58.2 42v30.9h-135.9V458h135.9ZM914.724 644h-96.6v-32.1h61.8V418.1h-61.8V386h96.6v258Z"/></svg>
